<?xml version="1.0"?>
<svg xmlns="http://www.w3.org/2000/svg" xmlns:xlink="http://www.w3.org/1999/xlink" version="1.1" viewBox="0 0 172 172" width="480px" height="480px"><g transform=""><g fill="none" fill-rule="nonzero" stroke="none" stroke-width="1" stroke-linecap="butt" stroke-linejoin="miter" stroke-miterlimit="10" stroke-dasharray="" stroke-dashoffset="0" font-family="none" font-weight="none" font-size="none" text-anchor="none" style="mix-blend-mode: normal"><path d="M0,172v-172h172v172z" fill="none"/><path d="M0,86c0,-47.49649 38.50351,-86 86,-86c47.49649,0 86,38.50351 86,86c0,47.49649 -38.50351,86 -86,86c-47.49649,0 -86,-38.50351 -86,-86zM86,168.56c45.59663,0 82.56,-36.96337 82.56,-82.56c0,-45.59663 -36.96337,-82.56 -82.56,-82.56c-45.59663,0 -82.56,36.96337 -82.56,82.56c0,45.59663 36.96337,82.56 82.56,82.56z" fill="#000000"/><g id="Layer_1"><g><g fill="#d6e5e5"><g><path d="M131.60487,103.94206c-0.67187,-8.7075 -1.66625,-17.38812 -2.28437,-26.1225c-0.61812,-8.62687 -0.9675,-17.3075 -1.20937,-25.96125c-0.1075,-3.62813 -0.02688,-7.25625 -0.05375,-10.88437c0,-1.66625 -0.05375,-3.38625 -0.34938,-5.02563c-0.13437,-0.69875 -0.26875,-1.37062 -0.5375,-2.0425c-0.1075,-0.26875 -0.215,-0.51062 -0.34938,-0.7525c-0.18812,0.16125 -0.43,0.26875 -0.7525,0.3225c-6.53062,0.99437 -13.24937,1.31687 -19.86062,1.55875c-8.7075,0.29563 -17.44187,0.43 -26.14937,1.02125c-4.35375,0.29563 -8.68062,0.67188 -13.03437,0.7525c-3.49375,0.08062 -6.96062,0.24188 -10.45437,0.48375c-2.15,0.16125 -4.3,0.215 -6.45,0.40313c-1.075,0.1075 -2.17687,0.18812 -3.25187,0.40312c-0.3225,0.05375 -0.645,0.16125 -0.94063,0.26875c0.02688,0.1075 0.02688,0.24187 0,0.34937c-0.13438,1.8275 0.45687,3.62812 0.80625,5.375c0.37625,1.88125 0.45688,3.78938 0.51063,5.6975c0.1075,4.05812 0.24188,8.11625 0.34938,12.17437c0.24187,8.385 0.26875,16.77 1.12875,25.12812c0.43,4.24625 0.99438,8.4925 1.47813,12.73875c0.45687,4.085 0.40313,8.25062 0.40313,12.33562c-0.02688,8.25063 -0.05375,16.47437 -0.05375,24.725c0.72563,0 1.42437,0 2.15,0c16.58187,0.02688 33.19062,0.3225 49.7725,0.45687c0.215,-0.29562 0.56437,-0.48375 1.04812,-0.45687c2.15,0.05375 3.60125,-2.6875 4.48812,-4.3c0.72563,-1.31687 1.31687,-2.6875 1.935,-4.05813c-3.01,0.02688 -5.93937,0.645 -8.9225,1.04812c-4.43437,0.59125 -8.84187,1.31688 -13.30312,1.66625c-7.8475,0.645 -16.09812,1.45125 -23.81125,-0.77938c-1.8275,-0.51063 -1.26313,-3.44 0.56437,-2.9025c7.71312,2.23062 16.15187,1.3975 24.05312,0.61813c4.27312,-0.40313 8.51938,-1.10188 12.76563,-1.63938c2.82187,-0.37625 5.56312,-0.94062 8.385,-0.9675c0.02688,0 0.05375,0 0.08062,0h0.08063c0.48375,0 0.86,0.18812 1.12875,0.48375c0.645,-1.53188 1.20937,-3.19813 1.6125,-4.945c-1.45125,-0.08063 -2.95625,0.18812 -4.4075,0.24188c-2.23062,0.08062 -4.43438,0.29562 -6.61125,0.645c-4.24625,0.645 -8.46563,1.42438 -12.73875,1.88125c-8.6,0.91375 -17.22687,1.3975 -25.82687,0.51062c-1.90813,-0.18812 -1.31688,-3.09063 0.56437,-2.9025c8.815,0.91375 17.79125,0.29562 26.57937,-0.69875c4.27312,-0.48375 8.46563,-1.3975 12.73875,-1.935c2.06938,-0.26875 4.13875,-0.3225 6.20813,-0.45687c1.26313,-0.08063 2.55313,-0.215 3.81625,-0.16125c0,-0.16125 0.02688,-0.3225 0.02688,-0.51062c0.02687,-0.13438 0.02687,-0.29563 0.05375,-0.43c0.08063,0 0.16125,0 0.24187,0c0.08063,-0.88687 0.13438,-1.77375 0.13438,-2.66062c-4.03125,0.45687 -7.98187,1.04813 -11.9325,2.01563c-4.70312,1.15562 -9.27188,2.52625 -14.10937,2.87562c-4.75688,0.3225 -9.54063,0.26875 -14.2975,-0.02687c-2.17687,-0.13437 -4.32687,-0.29563 -6.50375,-0.43c-1.90812,-0.1075 -3.7625,-0.29563 -5.50937,-1.10188c-1.72,-0.80625 -0.40313,-3.44 1.31688,-2.66062c1.74687,0.80625 3.73562,0.77938 5.59,0.86c2.09625,0.1075 4.1925,0.34938 6.28875,0.43c4.6225,0.24188 9.29875,0.3225 13.89437,-0.13438c4.73,-0.45687 9.245,-1.935 13.8675,-3.01c3.70875,-0.86 7.44437,-1.3975 11.20687,-1.8275c-0.13438,-1.04812 -0.34938,-2.09625 -0.645,-3.09063c-0.02688,0 -0.05375,0 -0.08063,0c-0.26875,0.05375 -0.5375,0.08063 -0.80625,0.13438c-0.77937,0.1075 -1.53187,0.26875 -2.28437,0.40313c-2.23063,0.43 -4.46125,0.80625 -6.71875,1.10187c-4.64937,0.61813 -9.29875,0.99438 -13.975,1.26313c-9.46,0.5375 -18.89312,0.72562 -28.35312,0.72562c-1.90812,0 -2.12312,-2.95625 -0.215,-2.95625c9.80937,0 19.59187,-0.18812 29.40125,-0.80625c4.97188,-0.3225 9.97063,-0.72563 14.88875,-1.505c2.12312,-0.3225 4.24625,-0.88687 6.36938,-1.12875c0.9675,-0.1075 2.39187,-0.645 3.3325,-0.08063c0.02687,0 0.02687,0.02688 0.05375,0.02688v-0.24188c0.02688,0 0.05375,0.02688 0.05375,0.02688c3.25188,1.63938 6.47687,3.89687 10.18562,4.24625c1.12875,0.1075 2.28437,0.16125 3.41312,0.08063c0.45688,-0.02688 2.20375,-0.08063 2.41875,-0.43c0.37625,-0.645 1.02125,-0.80625 1.6125,-0.69875c0.02688,-1.505 -0.08062,-3.1175 -0.215,-4.75687zM121.68799,87.89768c-5.18687,0.02687 -10.37375,0.91375 -15.53375,1.55875c-5.02563,0.645 -10.02438,1.45125 -15.02313,2.2575c-4.97187,0.80625 -9.94375,1.63937 -14.96937,2.06937c-4.99875,0.40312 -10.02437,0.56437 -15.02312,0.56437c-1.90813,0 -2.12313,-2.95625 -0.215,-2.95625c5.18687,0 10.37375,-0.13438 15.56062,-0.61813c5.02562,-0.45687 9.9975,-1.29 14.96937,-2.09625c4.99875,-0.83312 9.9975,-1.63937 15.05,-2.2575c4.81062,-0.59125 9.62125,-1.3975 14.45875,-1.47812c0.05375,0 0.1075,0 0.18813,0h0.34937c1.85438,0 2.09625,2.92937 0.18813,2.95625zM120.58612,76.77143c-0.59125,-0.1075 -1.505,0.1075 -2.17687,0.215c-0.80625,0.1075 -1.6125,0.13437 -2.41875,0.215c-2.33813,0.215 -4.67625,0.5375 -7.01438,0.94063c-4.75687,0.83312 -9.51375,1.505 -14.35125,1.53188c-1.90812,0 -2.12312,-2.92937 -0.215,-2.95625c5.21375,-0.02688 10.23938,-0.91375 15.3725,-1.69313c2.33812,-0.34938 4.67625,-0.61813 7.04125,-0.83312c1.3975,-0.13437 2.9025,-0.5375 4.32688,-0.3225c1.88125,0.29562 1.31687,3.19813 -0.56437,2.9025zM118.46299,65.24206c-0.43,0.24187 -0.7525,0.37625 -1.26313,0.43c-0.215,0.02687 -0.40312,0 -0.56438,-0.05375c-3.655,0.43 -7.31,1.1825 -10.93812,1.72c-3.17125,0.48375 -6.42312,0.645 -9.62125,0.645c-1.90813,0 -2.12313,-2.95625 -0.215,-2.95625c3.38625,0 6.665,-0.37625 10.02437,-0.72562c3.92375,-0.40312 7.74,-1.3975 11.63688,-1.80062c1.42438,-0.08063 2.23063,1.98875 0.94063,2.74125zM119.05424,71.23518c-0.45687,0.215 -0.91375,0.18813 -1.29,0c-3.5475,0.08062 -7.04125,0.88688 -10.58875,1.26313c-3.7625,0.40312 -7.47125,1.55875 -11.2875,1.42437c-1.88125,-0.05375 -2.12313,-3.01 -0.215,-2.95625c3.81625,0.13437 7.525,-1.04813 11.2875,-1.42437c3.95063,-0.40313 7.82063,-1.37063 11.825,-1.26313c1.8275,0.05375 2.15,2.74125 0.26875,2.95625zM117.95237,60.72706l0.02688,-0.05375c-0.56437,0.5375 -1.42438,0.51063 -1.98875,0.16125c-3.655,0.05375 -7.22937,0.88687 -10.83062,1.37062c-3.92375,0.5375 -7.82063,0.77937 -11.77125,0.77937c-1.90812,0 -2.12312,-2.95625 -0.215,-2.95625c4.11188,0 8.22375,-0.24188 12.28187,-0.86c3.84313,-0.59125 7.65937,-1.42438 11.55625,-1.29c0.61813,0.02687 1.34375,0.29562 1.505,0.99437c0,0.05375 0.02687,0.08063 0.02687,0.13437c0.16125,0.67188 0,1.29 -0.59125,1.72zM111.17987,38.79706c2.06937,-1.74688 5.50937,-2.41875 8.00875,-1.34375c1.74687,0.7525 0.43,3.38625 -1.31688,2.66062c-1.10187,-0.45687 -3.1175,-0.16125 -4.11187,0.48375c-0.24187,0.16125 -2.0425,1.69313 -1.6125,1.85438c1.15563,0.40313 2.60688,0.05375 3.81625,0.34938c1.53187,0.37625 2.76812,1.10187 3.655,2.41875c1.58562,2.33813 1.63937,5.805 -0.61813,7.74c-1.935,1.66625 -4.86437,1.98875 -7.31,2.01562c-1.90812,0.02688 -2.12312,-2.92937 -0.215,-2.95625c2.12312,-0.02687 6.665,-0.18812 6.36937,-3.30563c-0.16125,-1.74687 -1.15563,-2.66062 -2.76813,-3.06375c-1.29,-0.3225 -2.63375,0 -3.92375,-0.43c-3.30563,-1.20937 -1.88125,-4.81062 0.02688,-6.42312zM86.96549,39.76456c0.08062,-1.88125 3.03687,-2.12313 2.95625,-0.215c-0.1075,2.63375 1.58562,5.0525 2.44563,7.47125c0.45688,1.34375 0.91375,2.76813 1.58562,4.085c0.3225,-1.10187 0.59125,-2.17687 0.7525,-3.30562c0.24187,-1.74688 0.37625,-3.49375 1.42438,-4.97188c0.48375,-0.67187 1.53187,-0.61812 2.09625,-0.13438c2.06938,1.80063 3.06375,4.21938 4.21937,6.5575c0.24188,-1.15562 0.45688,-2.33812 0.5375,-3.52062c0.1075,-1.505 -0.05375,-3.25187 0.80625,-4.56875c1.02125,-1.55875 3.70875,-0.26875 2.66062,1.31688c-0.80625,1.23625 -0.43,3.19812 -0.67187,4.59562c-0.37625,2.17687 -0.83313,4.32687 -1.1825,6.47687c-0.215,1.34375 -1.935,1.505 -2.6875,0.5375c-1.77375,-2.2575 -2.52625,-5.18687 -4.16562,-7.525c-0.1075,0.83312 -0.1075,1.69312 -0.26875,2.39188c-0.43,1.96187 -1.075,3.87 -1.505,5.83187c-0.215,1.02125 -1.6125,1.66625 -2.41875,0.83312c-2.01562,-2.15 -3.03688,-4.91812 -4.00437,-7.65937c-0.94063,-2.66063 -2.71437,-5.2675 -2.58,-8.19687zM71.43174,40.49018c0.16125,-0.26875 0.40312,-0.48375 0.7525,-0.61812c2.01563,-0.77938 4.085,-0.24188 6.18125,-0.40313c0.83312,-0.08062 1.66625,-0.02688 2.49938,-0.05375c0.40313,-0.02688 0.80625,-0.02688 1.20938,-0.08062c0.1075,0 0.69875,-0.215 0.37625,0c1.58563,-1.075 3.225,1.3975 1.66625,2.44562c-1.23625,0.83312 -3.3325,0.59125 -4.75687,0.61812c-1.80062,0 -4.05812,-0.37625 -5.83187,0.18813c0.29562,1.12875 0.3225,2.52625 0.3225,3.5475c0.1075,-0.02688 0.24187,-0.05375 0.37625,-0.02688c1.96188,0.02688 3.87,0.13438 5.805,-0.08062c1.29,-0.13438 2.795,-0.45687 4.085,-0.08062c1.80062,0.5375 1.26312,3.46687 -0.56437,2.9025c-1.20937,-0.37625 -2.6875,0.1075 -3.92375,0.18813c-1.74687,0.1075 -3.44,0.02687 -5.18687,0.02687c-0.16125,0 -0.3225,-0.02687 -0.45688,-0.08062c0.08063,1.6125 0.16125,3.225 0.08063,4.81063c3.57438,-0.1075 7.12187,-0.83313 10.72313,-0.69875c1.88125,0.08062 2.12312,3.01 0.215,2.95625c-3.78938,-0.13437 -7.49813,0.67188 -11.2875,0.72563c-0.645,0 -1.10187,-0.3225 -1.34375,-0.77937c-0.72562,-0.16125 -1.3975,-0.7525 -1.29,-1.69312c0,-0.05375 0,-0.02687 0,-0.02687c0,-0.02687 0,-0.08062 0,-0.16125c0,-0.215 0,-0.45687 0,-0.67187c0,-0.51063 0,-1.02125 0,-1.53187c-0.02688,-1.29 -0.05375,-2.55313 -0.13437,-3.81625c-0.05375,-1.23625 -0.13438,-2.4725 -0.26875,-3.68187c-0.05375,-0.45687 -0.1075,-0.91375 -0.18813,-1.34375c-0.02687,-0.08062 -0.02687,-0.1075 -0.02687,-0.1075c0,0 -0.02687,-0.02687 -0.02687,-0.08063c-0.59125,-0.94063 -0.13438,-2.33812 0.99437,-2.39187zM54.01674,42.23706c0.18812,-1.1825 1.3975,-1.3975 2.20375,-0.94062c0.40312,-0.1075 0.86,-0.05375 1.29,0.29563c1.96187,1.55875 2.92937,4.27313 4.1925,6.36937c0.91375,1.505 2.06938,2.76812 3.17125,4.11187c0.13437,-1.3975 0.18813,-2.82187 0.34938,-4.21937c0.24187,-1.80062 0.77938,-3.7625 0.56437,-5.59c-0.215,-1.90813 2.71438,-2.12313 2.95625,-0.215c0.215,1.935 -0.3225,4.03125 -0.56437,5.93937c-0.34938,2.6875 -0.215,5.45562 -1.075,8.0625c-0.48375,1.45125 -2.17688,1.58563 -2.84875,0.215c-1.29,-2.60687 -3.73562,-4.4075 -5.18687,-6.90687c-0.72562,-1.26313 -1.37062,-2.84875 -2.2575,-4.13875c0.13437,1.88125 0.61813,3.81625 0.80625,5.59c0.215,2.17688 0.34938,4.35375 0.34938,6.5575c0,0.02687 0,0.05375 0,0.08062v0.215c0,1.90813 -2.95625,2.12313 -2.95625,0.215c0,-2.49938 -0.13437,-4.99875 -0.43,-7.49812c-0.215,-2.63375 -0.99437,-5.45563 -0.56437,-8.14313zM56.75799,75.99206c-0.26875,-1.02125 -0.61813,-2.0425 -0.88688,-3.06375c-0.645,-2.365 -1.1825,-4.75687 -1.69312,-7.14875c-0.24188,-1.15562 0.83312,-1.69313 1.74687,-1.45125c0.08062,-0.08062 0.18812,-0.16125 0.3225,-0.24188c1.90813,-1.04812 4.16563,-1.02125 6.26188,-1.31687c2.84875,-0.40312 5.64375,-1.02125 8.51937,-1.29c4.75688,-0.48375 9.5675,-0.80625 14.35125,-0.83312c0.34938,-1.1825 2.31125,-1.55875 2.84875,-0.1075c0.99438,2.71437 1.29,5.72438 1.55875,8.6c0.3225,3.225 0.48375,6.45 0.48375,9.70187c0,0.48375 -0.16125,1.075 -0.645,1.34375c-1.53187,0.83312 -3.1175,1.3975 -4.81062,1.77375c-0.24188,0.05375 -0.45687,0.05375 -0.67187,0.02688c-2.09625,1.29 -5.67062,0.5375 -7.82062,0.34938c-1.80062,-0.16125 -3.62812,-0.08062 -5.45563,-0.02688c-2.06937,0.05375 -4.16562,0 -6.235,0.34938c-3.19812,0.56437 -6.96062,0.645 -7.55187,-3.38625c-0.13438,-1.12875 -0.05375,-2.2575 -0.3225,-3.27875zM59.28424,86.01643c10.15875,-0.02688 20.26375,-1.34375 30.36875,-2.31125c5.18688,-0.48375 10.37375,-0.9675 15.53375,-1.74688c2.44563,-0.37625 4.89125,-0.59125 7.33688,-0.9675c1.42438,-0.215 2.92938,-0.1075 4.38063,-0.29563c0.215,-0.26875 0.5375,-0.43 0.99437,-0.43h0.88688c1.63938,0 2.2575,2.28437 0.59125,2.87562c-2.0425,0.72563 -4.13875,0.40313 -6.235,0.72563c-2.39187,0.37625 -4.81063,0.59125 -7.2025,0.9675c-5.16,0.77938 -10.34687,1.29 -15.53375,1.77375c-10.26625,0.9675 -20.5325,2.31125 -30.87937,2.33812c-1.90813,0.02688 -2.12313,-2.92937 -0.24188,-2.92937zM59.66049,97.30393c4.89125,-0.26875 9.80937,0.3225 14.70062,0.05375c4.91813,-0.26875 9.83625,-0.94063 14.7275,-1.42437c5.21375,-0.51062 10.40063,-1.02125 15.5875,-1.66625c2.4725,-0.29563 4.99875,-0.43 7.47125,-0.91375c1.88125,-0.37625 3.60125,-0.9675 5.50938,-1.04812c0.08063,0 0.13438,-0.02688 0.215,-0.02688h0.3225c1.90812,0 2.12313,2.95625 0.215,2.95625c-2.28437,0 -4.32688,0.80625 -6.5575,1.15563c-2.4725,0.40312 -4.99875,0.59125 -7.49812,0.88687c-5.02563,0.59125 -10.05125,1.10188 -15.07688,1.58562c-5.0525,0.51063 -10.13187,1.23625 -15.23812,1.45125c-4.73,0.18813 -9.48687,-0.3225 -14.21687,-0.08062c-1.85438,0.13437 -2.06938,-2.82188 -0.16125,-2.92937zM123.75737,99.74956c-1.10188,1.10188 -3.1175,0.80625 -4.54187,0.9675c-2.52625,0.3225 -5.02562,1.15563 -7.55187,1.47813c-2.9025,0.40312 -5.805,0.51062 -8.73437,0.69875c-2.9025,0.18813 -5.77812,0.56437 -8.62687,0.94062c-5.85875,0.77938 -11.69062,1.90813 -17.63,2.06937c-2.84875,0.08063 -5.6975,0.05375 -8.57312,0.05375c-2.4725,0 -5.13312,0.3225 -7.55187,-0.215c-1.85438,-0.40313 -1.29,-3.30562 0.56437,-2.9025c2.4725,0.5375 5.2675,0.16125 7.76687,0.16125c2.6875,0 5.375,0.02688 8.0625,-0.05375c5.59,-0.215 11.0725,-1.23625 16.60875,-1.98875c2.87562,-0.37625 5.75125,-0.77938 8.62687,-0.9675c2.74125,-0.18812 5.4825,-0.26875 8.19687,-0.59125c2.63375,-0.3225 5.24063,-0.88687 7.82062,-1.47812c0.69875,-0.16125 1.42438,-0.18813 2.15,-0.24187c0.37625,-0.02688 0.77937,-0.05375 1.15563,-0.1075c0.5375,-0.08063 0.45687,-0.24187 0,0.24187c1.37062,-1.37063 3.60125,0.59125 2.2575,1.935z"/></g></g><g fill="#bcbcbc"><g><path d="M124.67112,112.86456c-3.17125,-0.24187 -5.93937,-1.55875 -8.68062,-2.98312c0.08063,0.48375 0.16125,0.99437 0.215,1.505c0.08063,0.05375 0.16125,0.16125 0.215,0.24187c-0.08063,0.1075 -0.1075,0.24188 -0.08063,0.40313c0.1075,0.69875 0.13438,1.3975 0.16125,2.09625c-0.02688,0.02688 -0.08063,0.05375 -0.13438,0.08062c0.02688,4.70313 -1.15563,9.5675 -2.87563,13.67937c-0.43,0.99438 -0.83312,2.01563 -1.26312,3.01c2.0425,-1.935 4.1925,-3.7625 6.28875,-5.6975c2.33812,-2.17687 4.59562,-4.4075 6.90687,-6.61125c1.96188,-1.88125 3.87,-3.84312 5.53625,-5.99313c0,-0.05375 0.02688,-0.1075 0.05375,-0.16125c-1.96187,0.77938 -4.54188,0.56437 -6.3425,0.43z"/></g></g><g fill="#bcbcbc"><g><path d="M137.89362,125.87206c-0.48375,-1.20938 -0.215,-2.44563 -0.34938,-3.73562c-0.215,-1.80063 -0.34938,-3.62812 -0.37625,-5.45562c-0.08063,-4.13875 -0.18813,-8.25063 -0.18813,-12.38937c-0.02688,-8.815 -0.86,-17.57625 -1.3975,-26.36437c-0.51062,-8.7075 -0.215,-17.415 -1.45125,-26.06875c-0.3225,-2.20375 -0.80625,-4.38062 -1.075,-6.58437c-0.24187,-1.96187 -0.26875,-3.92375 -0.56437,-5.88562c-0.3225,-2.15 -0.94063,-4.21937 -1.26313,-6.36937c-0.24187,-1.55875 -0.40312,-3.14438 -0.59125,-4.70313c-0.3225,0.05375 -0.61812,0 -0.83312,-0.16125c-7.04125,0.34938 -14.13625,0.29563 -21.15063,0.94062c-7.22937,0.67188 -14.405,1.98875 -21.66125,2.31125c-7.22937,0.3225 -14.48562,0.13438 -21.74187,0.48375c-1.88125,0.08063 -3.7625,0.215 -5.64375,0.34938c-1.6125,0.13437 -3.19813,0.7525 -4.81063,0.83312c-0.69875,0.02688 -1.37063,0.05375 -2.06938,-0.1075c-0.34937,-0.08062 -0.67187,-0.18813 -1.02125,-0.24187c-0.1075,0 -0.16125,0 -0.215,0c-0.02687,0.34937 0.13437,0.83312 0.18812,1.10187c0.05375,0.26875 0.05375,0.5375 0.05375,0.80625c1.37062,-0.08062 2.74125,-0.16125 4.13875,-0.24188c7.65937,-0.48375 15.29187,-0.67187 22.95125,-1.20937c8.86875,-0.61813 17.79125,-0.77938 26.68688,-1.075c6.7725,-0.24188 13.67937,-0.5375 20.37125,-1.55875c0.26875,-0.05375 0.51062,-0.02688 0.69875,0.05375c0.37625,-0.26875 0.86,-0.37625 1.3975,-0.18813c1.37063,0.48375 1.96188,2.20375 2.31125,3.52063c0.40313,1.58562 0.61813,3.225 0.67188,4.86437c0.13438,3.41312 -0.05375,6.82625 0.02688,10.23937c0.08063,4.32688 0.29562,8.65375 0.51063,12.98062c0.40313,8.7075 0.83312,17.38812 1.63937,26.06875c0.72563,7.90125 1.53187,15.82937 1.90812,23.7575h-0.7525c0.18813,0.45687 0.16125,0.99437 -0.215,1.505c-1.88125,2.63375 -4.13875,4.97188 -6.47688,7.22937c-2.20375,2.09625 -4.35375,4.24625 -6.58438,6.31562c-1.98875,1.85438 -4.13875,3.62813 -6.18125,5.50937c1.8275,-0.29562 3.62813,-0.7525 5.45562,-1.1825c2.33812,-0.5375 4.6225,-0.86 7.01438,-1.10188c2.60687,-0.24187 5.24063,-0.51062 7.82063,-0.91375c0.56437,-0.08063 2.20375,-0.08063 2.44563,-0.7525c0.18812,-0.51062 0.08063,-1.20938 0.08063,-1.74688c0,-0.34938 0.08062,-0.61812 0.24187,-0.83312z"/></g></g><g fill="#1e4384"><g><path d="M86.88487,69.81081c-0.215,-2.06937 -0.37625,-4.21937 -0.86,-6.28875c-4.78375,0.02687 -9.5675,0.3225 -14.32438,0.80625c-2.66062,0.26875 -5.29437,0.83312 -7.955,1.20937c-1.075,0.16125 -2.15,0.3225 -3.25187,0.43c-0.86,0.08062 -1.8275,0.13437 -2.60687,0.5375c-0.18813,0.1075 -0.34938,0.16125 -0.5375,0.18812c0.37625,1.74688 0.77937,3.52062 1.29,5.24063c0.5375,1.80062 1.075,3.5475 1.23625,5.42875c0.1075,1.37063 0,2.6875 1.66625,2.63375c1.37062,-0.02688 2.6875,-0.37625 4.03125,-0.5375c1.98875,-0.24187 4.085,-0.13437 6.07375,-0.18813c1.55875,-0.05375 3.1175,-0.08062 4.67625,0.05375c1.29,0.1075 2.60687,0.26875 3.89687,0.29562c0.59125,0 2.15,0.05375 2.41875,-0.24187c0.48375,-0.56437 1.12875,-0.59125 1.63938,-0.34938c1.02125,-0.24187 2.0425,-0.56437 2.98312,-0.99437c0.02687,-2.76812 -0.1075,-5.50937 -0.37625,-8.22375z"/></g></g><g fill="#010101"><g><path d="M140.58112,126.11393c0.215,-0.43 0.26875,-0.94062 -0.02688,-1.45125c-0.215,-0.40313 -0.05375,-1.31688 -0.05375,-1.74688c0,-0.7525 -0.08063,-1.47812 -0.13438,-2.20375c-0.16125,-1.88125 -0.26875,-3.7625 -0.26875,-5.67063c0,-4.1925 -0.13438,-8.385 -0.18812,-12.5775c-0.08063,-8.62687 -0.94063,-17.22687 -1.45125,-25.82687c-0.48375,-8.54625 -0.24187,-17.03875 -1.45125,-25.53125c-0.29563,-2.0425 -0.69875,-4.03125 -1.02125,-6.07375c-0.29563,-1.935 -0.3225,-3.92375 -0.56437,-5.88563c-0.24187,-1.98875 -0.86,-3.89687 -1.1825,-5.88562c-0.34937,-2.12313 -0.56437,-4.3 -0.80625,-6.45c-0.1075,-0.9675 -0.86,-1.37062 -1.55875,-1.31687c-0.29563,-0.26875 -0.69875,-0.43 -1.10188,-0.40313c-7.6325,0.43 -15.29188,0.34937 -22.8975,1.075c-7.74,0.72563 -15.39937,2.09625 -23.19312,2.33813c-7.76688,0.24187 -15.53375,0.08062 -23.27375,0.61812c-1.80063,0.1075 -3.60125,0.24187 -5.34813,0.67188c-0.67187,0.16125 -1.42438,0.40313 -2.12313,0.34937c-0.67187,-0.05375 -1.31688,-0.3225 -1.98875,-0.43c-1.34375,-0.215 -2.39187,0.3225 -3.09063,1.47812c-0.69875,1.15562 0.05375,2.365 -0.05375,3.52063c0,0.05375 0,0.08062 0,0.13437c-1.66625,0.16125 -4.05812,0.29563 -5.21375,1.55875c-0.16125,0.16125 -0.29563,0.34937 -0.37625,0.56437c-0.16125,0.34937 -0.16125,0.67188 -0.1075,0.9675c-0.02688,0.08062 -0.02688,0.13437 -0.02688,0.215c-0.13437,1.80063 0.16125,3.46688 0.5375,5.21375c0.43,1.90813 0.61812,3.73562 0.69875,5.67062c0.16125,4.05813 0.215,8.08937 0.34938,12.1475c0.29562,8.57312 0.29562,17.11937 1.10187,25.63875c0.40313,4.24625 0.9675,8.4925 1.45125,12.73875c0.48375,4.085 0.45687,8.25063 0.45687,12.3625c-0.02687,8.68062 -0.05375,17.38812 -0.05375,26.06875c0,0.69875 0.37625,1.10187 0.86,1.23625c0.26875,0.37625 0.67188,0.645 1.26313,0.645c17.79125,0 35.55562,0.3225 53.34687,0.45688c1.6125,0.02687 3.25187,0.02687 4.86437,0.02687v-0.26875c0.18812,-0.1075 0.37625,-0.29563 0.51063,-0.51063c0.99437,-1.55875 2.15,-3.01 3.41312,-4.35375c0.24187,0.18813 0.59125,0.3225 0.99438,0.29563c2.84875,-0.16125 5.61687,-0.91375 8.385,-1.58562c3.01,-0.72563 6.10062,-0.91375 9.19125,-1.23625c1.47812,-0.16125 2.95625,-0.34938 4.4075,-0.56438c1.23625,-0.18812 2.58,-0.26875 3.70875,-0.83312c1.98875,-0.99437 2.0425,-2.95625 2.01563,-4.91813c0.02688,-0.05375 0.02688,-0.16125 0,-0.26875zM111.04549,126.11393c-0.26875,-0.29562 -0.645,-0.48375 -1.12875,-0.48375h-0.08063c-0.02688,0 -0.05375,0 -0.08063,0c-2.84875,0.02687 -5.59,0.59125 -8.385,0.9675c-4.24625,0.56438 -8.4925,1.23625 -12.76563,1.63938c-7.87437,0.77937 -16.31312,1.58562 -24.05312,-0.61813c-1.8275,-0.5375 -2.39187,2.39187 -0.56437,2.9025c7.68625,2.20375 15.93687,1.3975 23.81125,0.77938c4.46125,-0.34938 8.86875,-1.075 13.30312,-1.66625c2.98313,-0.40312 5.9125,-1.02125 8.9225,-1.04812c-0.59125,1.37063 -1.20938,2.74125 -1.935,4.05813c-0.88688,1.6125 -2.33812,4.35375 -4.48812,4.3c-0.48375,0 -0.83313,0.18812 -1.04812,0.45687c-16.58187,-0.13437 -33.19062,-0.43 -49.7725,-0.45687c-0.72563,0 -1.42438,0 -2.15,0c0,-8.25063 0.02687,-16.47437 0.05375,-24.725c0.02688,-4.085 0.05375,-8.25062 -0.40313,-12.33562c-0.48375,-4.24625 -1.04812,-8.4925 -1.47813,-12.73875c-0.86,-8.35812 -0.91375,-16.74312 -1.12875,-25.12812c-0.1075,-4.05812 -0.24188,-8.11625 -0.34938,-12.17437c-0.05375,-1.90812 -0.13437,-3.81625 -0.51062,-5.6975c-0.34937,-1.74688 -0.94062,-3.57437 -0.80625,-5.375c0,-0.13437 0,-0.24187 0,-0.34937c0.29563,-0.1075 0.61813,-0.18812 0.94063,-0.26875c1.075,-0.215 2.15,-0.3225 3.25187,-0.40313c2.15,-0.18812 4.3,-0.24188 6.45,-0.40313c3.49375,-0.24187 6.96062,-0.40313 10.45437,-0.48375c4.35375,-0.1075 8.68062,-0.45687 13.03437,-0.7525c8.7075,-0.59125 17.415,-0.72562 26.14937,-1.02125c6.58438,-0.215 13.33,-0.56437 19.86062,-1.55875c0.29563,-0.05375 0.5375,-0.16125 0.7525,-0.3225c0.13437,0.24187 0.24187,0.51062 0.34938,0.7525c0.26875,0.645 0.43,1.34375 0.5375,2.0425c0.29563,1.66625 0.3225,3.35938 0.34938,5.02562c0.02688,3.62813 -0.05375,7.25625 0.05375,10.88437c0.24188,8.65375 0.59125,17.33437 1.20938,25.96125c0.61812,8.7075 1.6125,17.415 2.28437,26.1225c0.13438,1.6125 0.24187,3.25187 0.3225,4.89125c-0.59125,-0.1075 -1.23625,0.08063 -1.6125,0.69875c-0.215,0.34938 -1.96187,0.40313 -2.41875,0.43c-1.12875,0.08063 -2.28438,0.02688 -3.41312,-0.08062c-3.70875,-0.34938 -6.93375,-2.60688 -10.18562,-4.24625c-0.02688,0 -0.05375,-0.02687 -0.05375,-0.02687v0.24187c-0.02688,0 -0.02688,-0.02687 -0.05375,-0.02687c-0.91375,-0.5375 -2.33813,-0.02688 -3.3325,0.08062c-2.12312,0.24188 -4.24625,0.77937 -6.36937,1.12875c-4.945,0.77938 -9.91687,1.1825 -14.88875,1.505c-9.80937,0.61813 -19.59188,0.80625 -29.40125,0.80625c-1.90813,0 -1.66625,2.95625 0.215,2.95625c9.46,0 18.92,-0.18812 28.35312,-0.72562c4.67625,-0.26875 9.32563,-0.645 13.975,-1.26312c2.2575,-0.29563 4.48812,-0.67187 6.71875,-1.10188c0.7525,-0.13437 1.505,-0.29563 2.28438,-0.40313c0.26875,-0.05375 0.5375,-0.08062 0.80625,-0.13437c0.02688,0 0.05375,0 0.08062,0c0.29563,0.99437 0.51063,2.0425 0.645,3.09063c-3.7625,0.43 -7.49813,0.9675 -11.20687,1.8275c-4.6225,1.075 -9.1375,2.52625 -13.8675,3.01c-4.59562,0.45688 -9.29875,0.34938 -13.89437,0.13438c-2.09625,-0.1075 -4.1925,-0.34938 -6.28875,-0.43c-1.88125,-0.08062 -3.87,-0.05375 -5.59,-0.86c-1.72,-0.80625 -3.03687,1.85438 -1.31687,2.66062c1.74688,0.80625 3.60125,0.99437 5.50937,1.10188c2.17687,0.13438 4.32687,0.29562 6.50375,0.43c4.75687,0.29563 9.54062,0.37625 14.2975,0.02688c4.8375,-0.34938 9.43313,-1.72 14.10937,-2.87562c3.95063,-0.9675 7.92813,-1.55875 11.9325,-2.01562c0,0.88688 -0.05375,1.77375 -0.13437,2.66063c-0.08063,0 -0.16125,0 -0.24188,0c-0.02688,0.13437 -0.02688,0.29562 -0.05375,0.43c0,0.16125 -0.02687,0.3225 -0.02687,0.51063c-1.26313,-0.05375 -2.55313,0.08063 -3.81625,0.16125c-2.06937,0.13438 -4.13875,0.215 -6.20813,0.45687c-4.27312,0.5375 -8.46562,1.45125 -12.73875,1.935c-8.78812,1.02125 -17.7375,1.6125 -26.57937,0.69875c-1.88125,-0.18812 -2.4725,2.71437 -0.56438,2.9025c8.6,0.88688 17.25375,0.40313 25.82687,-0.51062c4.27312,-0.45687 8.4925,-1.23625 12.73875,-1.88125c2.20375,-0.3225 4.4075,-0.56438 6.61125,-0.645c1.45125,-0.05375 2.95625,-0.3225 4.4075,-0.24187c-0.51063,1.6125 -1.075,3.27875 -1.72,4.81062zM112.22799,130.89768c0.43,-0.99437 0.86,-2.01562 1.26312,-3.01c1.72,-4.11188 2.9025,-8.94937 2.87562,-13.67937c0.05375,-0.02688 0.08063,-0.05375 0.13437,-0.08062c0,-0.69875 -0.05375,-1.3975 -0.16125,-2.09625c-0.02688,-0.16125 0,-0.29562 0.08062,-0.40312c-0.08062,-0.08063 -0.13438,-0.16125 -0.215,-0.24188c-0.05375,-0.51063 -0.13438,-0.99437 -0.215,-1.505c2.74125,1.45125 5.50937,2.74125 8.68062,2.98312c1.80062,0.13438 4.38063,0.34938 6.31563,-0.43c-0.02688,0.05375 -0.02688,0.1075 -0.05375,0.16125c-1.69313,2.15 -3.57438,4.085 -5.53625,5.99312c-2.28437,2.20375 -4.56875,4.46125 -6.90687,6.61125c-2.06937,1.935 -4.21937,3.7625 -6.26187,5.6975zM137.59799,128.42518c-0.24187,0.67188 -1.88125,0.645 -2.44562,0.7525c-2.60687,0.43 -5.21375,0.67188 -7.82063,0.91375c-2.365,0.215 -4.67625,0.5375 -7.01438,1.10188c-1.8275,0.43 -3.60125,0.88687 -5.45562,1.1825c2.0425,-1.88125 4.16562,-3.655 6.18125,-5.50937c2.23063,-2.06937 4.38063,-4.21937 6.58438,-6.31563c2.33813,-2.23062 4.59562,-4.56875 6.47688,-7.22937c0.37625,-0.51063 0.40313,-1.075 0.215,-1.505h0.7525c-0.37625,-7.92812 -1.1825,-15.85625 -1.90812,-23.7575c-0.80625,-8.68063 -1.23625,-17.36125 -1.63938,-26.06875c-0.215,-4.32688 -0.40312,-8.65375 -0.51062,-12.98062c-0.08063,-3.41312 0.1075,-6.82625 -0.02688,-10.23937c-0.05375,-1.63938 -0.26875,-3.27875 -0.67187,-4.86437c-0.3225,-1.31688 -0.94062,-3.03688 -2.31125,-3.52063c-0.5375,-0.18813 -1.02125,-0.08063 -1.3975,0.18812c-0.18812,-0.08062 -0.43,-0.1075 -0.69875,-0.05375c-6.71875,1.02125 -13.59875,1.34375 -20.37125,1.55875c-8.89562,0.29563 -17.79125,0.45687 -26.68687,1.075c-7.65937,0.5375 -15.29187,0.72562 -22.95125,1.20937c-1.37062,0.08062 -2.74125,0.16125 -4.13875,0.24187c0,-0.26875 -0.02687,-0.5375 -0.05375,-0.80625c-0.05375,-0.26875 -0.215,-0.77937 -0.18812,-1.10188c0.05375,0 0.13437,0 0.215,0c0.34938,0.05375 0.67188,0.16125 1.02125,0.24188c0.69875,0.16125 1.34375,0.16125 2.06937,0.1075c1.6125,-0.08063 3.19813,-0.69875 4.81063,-0.83313c1.88125,-0.16125 3.7625,-0.26875 5.64375,-0.34937c7.22937,-0.34938 14.48562,-0.16125 21.74187,-0.48375c7.25625,-0.3225 14.43187,-1.63938 21.66125,-2.31125c7.01438,-0.645 14.10937,-0.59125 21.15062,-0.94062c0.24188,0.16125 0.51063,0.24187 0.83313,0.16125c0.16125,1.55875 0.34938,3.14438 0.59125,4.70312c0.3225,2.15 0.94062,4.24625 1.26312,6.36937c0.29563,1.96187 0.29563,3.92375 0.56438,5.88562c0.26875,2.20375 0.77937,4.38062 1.075,6.58437c1.23625,8.65375 0.91375,17.36125 1.45125,26.06875c0.51063,8.78812 1.37062,17.54937 1.3975,26.36437c0,4.13875 0.1075,8.25062 0.18812,12.38938c0.02688,1.8275 0.16125,3.655 0.37625,5.45562c0.16125,1.31687 -0.13437,2.52625 0.34938,3.73562c-0.13437,0.215 -0.215,0.48375 -0.215,0.80625c-0.02687,0.56438 0.08063,1.26312 -0.1075,1.77375z"/></g></g><g fill="#010101"><g><path d="M68.77112,42.04893c-0.215,-1.88125 -3.17125,-1.66625 -2.95625,0.215c0.215,1.80062 -0.34938,3.78937 -0.56437,5.59c-0.18812,1.3975 -0.215,2.82187 -0.34937,4.21937c-1.10188,-1.34375 -2.28437,-2.60687 -3.17125,-4.11187c-1.26312,-2.09625 -2.23062,-4.81062 -4.1925,-6.36937c-0.43,-0.34938 -0.88688,-0.40313 -1.29,-0.29563c-0.80625,-0.45687 -2.01562,-0.24188 -2.20375,0.94062c-0.43,2.6875 0.34937,5.50938 0.645,8.17c0.26875,2.4725 0.43,4.99875 0.43,7.49812c0,1.90813 2.95625,1.66625 2.95625,-0.215v-0.215c0,-0.02687 0,-0.05375 0,-0.08063c0,-2.17687 -0.13437,-4.38062 -0.34938,-6.5575c-0.18812,-1.77375 -0.67187,-3.70875 -0.80625,-5.59c0.88687,1.29 1.53187,2.87563 2.2575,4.13875c1.45125,2.49938 3.89688,4.3 5.18687,6.90687c0.67188,1.37063 2.365,1.23625 2.84875,-0.215c0.86,-2.60687 0.72562,-5.375 1.075,-8.0625c0.16125,-1.935 0.69875,-4.03125 0.48375,-5.96625z"/></g></g><g fill="#010101"><g><path d="M84.73487,53.04081c-3.60125,-0.13437 -7.14875,0.59125 -10.72312,0.69875c0.08062,-1.58563 0.02687,-3.225 -0.08062,-4.81063c0.13437,0.05375 0.29562,0.08062 0.45687,0.08062c1.74688,0.02688 3.44,0.08062 5.18688,-0.02687c1.23625,-0.08063 2.71437,-0.5375 3.92375,-0.18813c1.8275,0.56438 2.365,-2.365 0.56437,-2.9025c-1.26312,-0.37625 -2.795,-0.05375 -4.085,0.08062c-1.935,0.215 -3.87,0.1075 -5.805,0.08062c-0.13438,0 -0.26875,0.02688 -0.37625,0.02688c-0.02688,-1.02125 -0.02688,-2.41875 -0.3225,-3.5475c1.77375,-0.5375 4.03125,-0.16125 5.83188,-0.18812c1.42437,0 3.52062,0.24188 4.75687,-0.61813c1.58563,-1.075 -0.08062,-3.52062 -1.66625,-2.44562c0.3225,-0.215 -0.26875,0 -0.37625,0c-0.40312,0.05375 -0.80625,0.05375 -1.20937,0.08062c-0.83312,0.02688 -1.66625,0 -2.49938,0.05375c-2.06937,0.16125 -4.16563,-0.34938 -6.18125,0.40312c-0.34937,0.13438 -0.59125,0.34938 -0.7525,0.61812c-1.12875,0.05375 -1.58562,1.45125 -1.02125,2.33813c0.02688,0.05375 0.02688,0.08062 0.02688,0.08062c0,0 0,0.02687 0.02687,0.1075c0.08062,0.45687 0.13438,0.88688 0.18812,1.34375c0.13438,1.23625 0.215,2.44562 0.26875,3.68187c0.05375,1.26313 0.1075,2.55313 0.13437,3.81625c0,0.51063 0,1.02125 0,1.53187c0,0.215 0,0.45688 0,0.67188c0,0.08062 0,0.1075 0,0.16125c0,-0.02687 0,-0.02687 0,0.02688c-0.08062,0.94062 0.59125,1.55875 1.29,1.69312c0.24188,0.45687 0.69875,0.77937 1.34375,0.77937c3.78938,-0.02688 7.49813,-0.86 11.2875,-0.72562c1.935,0.13437 1.69313,-2.82187 -0.18812,-2.9025z"/></g></g><g fill="#010101"><g><path d="M103.76237,41.16206c-0.86,1.31688 -0.69875,3.06375 -0.80625,4.56875c-0.1075,1.1825 -0.29563,2.33812 -0.5375,3.52062c-1.15563,-2.33812 -2.15,-4.78375 -4.21937,-6.5575c-0.56438,-0.48375 -1.6125,-0.51063 -2.09625,0.13438c-1.04813,1.45125 -1.1825,3.225 -1.42438,4.97188c-0.16125,1.12875 -0.45687,2.23062 -0.7525,3.30562c-0.645,-1.31687 -1.10188,-2.74125 -1.58562,-4.085c-0.83313,-2.41875 -2.52625,-4.81062 -2.44563,-7.47125c0.08062,-1.90812 -2.87562,-1.66625 -2.95625,0.215c-0.1075,2.92937 1.66625,5.53625 2.58,8.22375c0.94062,2.74125 1.96188,5.50937 4.00437,7.65937c0.80625,0.86 2.20375,0.18813 2.41875,-0.83312c0.43,-1.96187 1.04812,-3.87 1.505,-5.83187c0.16125,-0.69875 0.16125,-1.55875 0.26875,-2.39187c1.63938,2.33812 2.39188,5.2675 4.16563,7.525c0.7525,0.9675 2.4725,0.80625 2.6875,-0.5375c0.34938,-2.17688 0.80625,-4.32688 1.1825,-6.47687c0.24187,-1.3975 -0.13438,-3.38625 0.67188,-4.59563c1.04812,-1.63938 -1.6125,-2.92937 -2.66063,-1.34375z"/></g></g><g fill="#010101"><g><path d="M119.59174,45.16643c-0.88688,-1.31688 -2.12313,-2.0425 -3.655,-2.41875c-1.23625,-0.29563 -2.66062,0.05375 -3.81625,-0.34937c-0.40313,-0.13438 1.3975,-1.69313 1.6125,-1.85438c0.99438,-0.645 3.03688,-0.94062 4.11188,-0.48375c1.74688,0.72563 3.06375,-1.90812 1.31687,-2.66062c-2.49937,-1.04813 -5.93937,-0.40313 -8.00875,1.34375c-1.90813,1.6125 -3.3325,5.21375 -0.08062,6.3425c1.29,0.45688 2.63375,0.1075 3.92375,0.43c1.6125,0.40313 2.60688,1.34375 2.76813,3.06375c0.3225,3.1175 -4.24625,3.30563 -6.36937,3.30563c-1.90813,0.02688 -1.66625,2.95625 0.215,2.95625c2.44563,-0.02688 5.375,-0.34937 7.31,-2.01562c2.33812,-1.85437 2.28437,-5.29437 0.67188,-7.65937z"/></g></g><g fill="#010101"><g><path d="M89.78737,69.08518c-0.26875,-2.87563 -0.59125,-5.88562 -1.55875,-8.6c-0.5375,-1.47812 -2.49937,-1.075 -2.84875,0.1075c-4.78375,0.05375 -9.59437,0.34938 -14.35125,0.83313c-2.84875,0.29563 -5.67062,0.91375 -8.51937,1.29c-2.12312,0.29562 -4.35375,0.26875 -6.26188,1.31687c-0.13437,0.08062 -0.24187,0.16125 -0.3225,0.24187c-0.91375,-0.24187 -1.98875,0.29563 -1.74687,1.45125c0.51063,2.39188 1.04813,4.81063 1.69312,7.14875c0.29563,1.02125 0.61813,2.0425 0.88688,3.06375c0.26875,1.02125 0.18812,2.17687 0.34938,3.225c0.59125,4.03125 4.35375,3.95063 7.55187,3.38625c2.0425,-0.34938 4.13875,-0.29562 6.235,-0.34938c1.8275,-0.05375 3.62813,-0.13437 5.45562,0.02688c2.15,0.18813 5.72438,0.94063 7.82063,-0.34938c0.215,0.02688 0.43,0.02688 0.67188,-0.02687c1.69313,-0.40313 3.27875,-0.94063 4.81062,-1.77375c0.48375,-0.26875 0.645,-0.83312 0.645,-1.34375c-0.02688,-3.19813 -0.215,-6.42313 -0.51063,-9.64812zM84.30487,79.00206c-0.51063,-0.24187 -1.15563,-0.18813 -1.63937,0.34938c-0.26875,0.29562 -1.8275,0.24187 -2.41875,0.24187c-1.29,0 -2.60687,-0.16125 -3.89687,-0.29563c-1.55875,-0.13437 -3.1175,-0.08062 -4.67625,-0.05375c-1.98875,0.05375 -4.085,-0.08062 -6.07375,0.18813c-1.34375,0.16125 -2.66062,0.51063 -4.03125,0.5375c-1.66625,0.05375 -1.55875,-1.26313 -1.66625,-2.63375c-0.13437,-1.88125 -0.69875,-3.62813 -1.23625,-5.42875c-0.51063,-1.72 -0.91375,-3.49375 -1.29,-5.24063c0.18812,-0.02688 0.34938,-0.08062 0.5375,-0.18813c0.77938,-0.43 1.74687,-0.45687 2.60688,-0.5375c1.10187,-0.1075 2.15,-0.26875 3.25187,-0.43c2.66063,-0.37625 5.29437,-0.94063 7.955,-1.20938c4.75688,-0.48375 9.54062,-0.77937 14.32437,-0.80625c0.48375,2.06937 0.645,4.21938 0.86,6.28875c0.26875,2.71437 0.40312,5.45562 0.43,8.17c-0.99438,0.48375 -2.01563,0.77938 -3.03688,1.04813z"/></g></g><g fill="#010101"><g><path d="M118.51674,59.00706c0,-0.05375 -0.02688,-0.08062 -0.02688,-0.13437c-0.16125,-0.67187 -0.88687,-0.9675 -1.505,-0.99437c-3.89687,-0.13438 -7.71312,0.72562 -11.55625,1.29c-4.05812,0.61813 -8.17,0.83312 -12.28187,0.86c-1.90812,0 -1.66625,2.95625 0.215,2.95625c3.95063,0 7.87438,-0.24187 11.77125,-0.77937c3.62812,-0.48375 7.17562,-1.31688 10.83063,-1.37062c0.56437,0.34937 1.42437,0.40313 1.98875,-0.16125l-0.02688,0.05375c0.61813,-0.43 0.77938,-1.04813 0.59125,-1.72z"/></g></g><g fill="#010101"><g><path d="M117.52237,62.55456c-3.92375,0.37625 -7.74,1.3975 -11.63688,1.80062c-3.35937,0.34938 -6.63812,0.69875 -10.02437,0.72563c-1.90813,0 -1.66625,2.95625 0.215,2.95625c3.225,0 6.45,-0.18812 9.62125,-0.645c3.655,-0.5375 7.28312,-1.29 10.93812,-1.72c0.16125,0.05375 0.34938,0.08063 0.56438,0.05375c0.48375,-0.05375 0.83312,-0.18813 1.26313,-0.43c1.29,-0.80625 0.48375,-2.87562 -0.94063,-2.74125z"/></g></g><g fill="#010101"><g><path d="M118.78549,68.27893c-4.00437,-0.13438 -7.87437,0.86 -11.825,1.26313c-3.7625,0.37625 -7.47125,1.55875 -11.2875,1.42437c-1.90813,-0.05375 -1.66625,2.87562 0.215,2.95625c3.81625,0.13438 7.525,-1.04812 11.2875,-1.42437c3.5475,-0.37625 7.04125,-1.1825 10.58875,-1.26313c0.37625,0.18813 0.83313,0.215 1.29,0c1.88125,-0.215 1.55875,-2.9025 -0.26875,-2.95625z"/></g></g><g fill="#010101"><g><path d="M121.15049,73.86893c-1.42437,-0.215 -2.9025,0.18813 -4.32688,0.3225c-2.365,0.215 -4.70312,0.48375 -7.04125,0.83312c-5.13313,0.77938 -10.15875,1.66625 -15.3725,1.69313c-1.90813,0 -1.66625,2.95625 0.215,2.95625c4.8375,-0.02688 9.59438,-0.69875 14.35125,-1.53188c2.31125,-0.40312 4.64938,-0.72562 7.01438,-0.94063c0.80625,-0.08062 1.6125,-0.1075 2.41875,-0.215c0.67188,-0.08062 1.58562,-0.29563 2.17687,-0.215c1.88125,0.29563 2.44562,-2.60688 0.56437,-2.9025z"/></g></g><g fill="#010101"><g><path d="M118.78549,80.29206h-0.88688c-0.45687,0 -0.77938,0.16125 -0.99437,0.43c-1.45125,0.18813 -2.92938,0.08062 -4.38063,0.29562c-2.44562,0.37625 -4.89125,0.61813 -7.33688,0.9675c-5.16,0.77938 -10.34687,1.26313 -15.53375,1.74687c-10.105,0.94063 -20.21,2.28438 -30.36875,2.31125c-1.90812,0 -1.66625,2.95625 0.215,2.95625c10.32,-0.02688 20.61312,-1.37062 30.87937,-2.33813c5.18688,-0.48375 10.37375,-0.99437 15.53375,-1.77375c2.39187,-0.34938 4.81062,-0.59125 7.2025,-0.9675c2.09625,-0.3225 4.1925,-0.02688 6.235,-0.72562c1.66625,-0.61813 1.04812,-2.9025 -0.56437,-2.9025z"/></g></g><g fill="#010101"><g><path d="M121.47299,84.94143h-0.34938c-0.05375,0 -0.1075,0 -0.18812,0c-4.8375,0.08062 -9.64812,0.91375 -14.45875,1.47812c-5.02562,0.61813 -10.05125,1.42437 -15.05,2.2575c-4.97187,0.80625 -9.94375,1.63938 -14.96937,2.09625c-5.16,0.45688 -10.37375,0.59125 -15.56062,0.61813c-1.90813,0 -1.66625,2.95625 0.215,2.95625c5.02562,0 10.02437,-0.16125 15.02312,-0.56437c5.02563,-0.40313 9.9975,-1.23625 14.96937,-2.06937c4.99875,-0.83312 9.9975,-1.63938 15.02312,-2.2575c5.13313,-0.645 10.32,-1.53187 15.53375,-1.55875c1.935,-0.02688 1.69313,-2.95625 -0.18812,-2.95625z"/></g></g><g fill="#010101"><g><path d="M118.22112,92.27831h-0.3225c-0.08063,0 -0.16125,0 -0.215,0.02688c-1.90812,0.1075 -3.62812,0.67188 -5.50937,1.04812c-2.44562,0.48375 -4.97187,0.59125 -7.47125,0.91375c-5.18688,0.645 -10.40063,1.15563 -15.5875,1.66625c-4.89125,0.48375 -9.80937,1.15562 -14.7275,1.42437c-4.91812,0.26875 -9.80937,-0.29562 -14.70062,-0.05375c-1.90812,0.1075 -1.66625,3.03688 0.215,2.95625c4.73,-0.24187 9.46,0.26875 14.21687,0.08062c5.07937,-0.215 10.15875,-0.94063 15.23812,-1.45125c5.02562,-0.48375 10.05125,-0.99437 15.07688,-1.58562c2.49937,-0.29563 4.99875,-0.48375 7.49812,-0.88687c2.23062,-0.34938 4.27312,-1.15563 6.5575,-1.15563c1.85437,-0.02688 1.6125,-2.98313 -0.26875,-2.98313z"/></g></g><g fill="#010101"><g><path d="M121.55362,97.81456c0.48375,-0.48375 0.5375,-0.29563 0,-0.24187c-0.37625,0.05375 -0.77937,0.08062 -1.15562,0.1075c-0.72562,0.05375 -1.45125,0.08062 -2.15,0.24187c-2.58,0.59125 -5.18688,1.15563 -7.82063,1.47813c-2.71438,0.34938 -5.4825,0.40312 -8.19688,0.59125c-2.9025,0.18812 -5.77812,0.59125 -8.62687,0.9675c-5.53625,0.7525 -11.01875,1.77375 -16.60875,1.98875c-2.6875,0.1075 -5.375,0.05375 -8.0625,0.05375c-2.49937,0 -5.32125,0.37625 -7.76687,-0.16125c-1.85437,-0.40313 -2.41875,2.49938 -0.56437,2.9025c2.44563,0.51063 5.07937,0.215 7.55188,0.215c2.84875,0 5.6975,0.02688 8.57312,-0.05375c5.9125,-0.16125 11.74437,-1.29 17.63,-2.06937c2.87563,-0.37625 5.75125,-0.7525 8.62688,-0.94063c2.9025,-0.18812 5.83187,-0.29563 8.73437,-0.69875c2.55312,-0.34938 5.02563,-1.1825 7.55188,-1.47812c1.42437,-0.18812 3.46687,0.13437 4.54187,-0.9675c1.29,-1.34375 -0.94062,-3.30562 -2.2575,-1.935z"/></g></g></g></g><path d="M86,172c-47.49649,0 -86,-38.50351 -86,-86v0c0,-47.49649 38.50351,-86 86,-86v0c47.49649,0 86,38.50351 86,86v0c0,47.49649 -38.50351,86 -86,86z" fill="none"/><path d="M86,168.56c-45.59663,0 -82.56,-36.96337 -82.56,-82.56v0c0,-45.59663 36.96337,-82.56 82.56,-82.56v0c45.59663,0 82.56,36.96337 82.56,82.56v0c0,45.59663 -36.96337,82.56 -82.56,82.56z" fill="none"/><path d="M0,172v-172h172v172z" fill="none"/><path d="M3.44,168.56v-165.12h165.12v165.12z" fill="none"/><path d="M86,172c-47.49649,0 -86,-38.50351 -86,-86v0c0,-47.49649 38.50351,-86 86,-86v0c47.49649,0 86,38.50351 86,86v0c0,47.49649 -38.50351,86 -86,86z" fill="none"/><path d="M86,168.56c-45.59663,0 -82.56,-36.96337 -82.56,-82.56v0c0,-45.59663 36.96337,-82.56 82.56,-82.56v0c45.59663,0 82.56,36.96337 82.56,82.56v0c0,45.59663 -36.96337,82.56 -82.56,82.56z" fill="none"/><path d="" fill="none"/><path d="" fill="none"/><path d="" fill="none"/><path d="" fill="none"/><path d="" fill="none"/><path d="" fill="none"/><path d="" fill="none"/><path d="" fill="none"/><path d="" fill="none"/><path d="" fill="none"/><path d="" fill="none"/><path d="" fill="none"/><path d="" fill="none"/><path d="" fill="none"/><path d="" fill="none"/><path d="" fill="none"/><path d="" fill="none"/><path d="" fill="none"/><path d="" fill="none"/><path d="" fill="none"/><path d="" fill="none"/><path d="" fill="none"/><path d="" fill="none"/><path d="" fill="none"/><path d="" fill="none"/><path d="" fill="none"/><path d="" fill="none"/><path d="" fill="none"/><path d="" fill="none"/><path d="" fill="none"/><path d="" fill="none"/><path d="" fill="none"/><path d="" fill="none"/><path d="" fill="none"/><path d="" fill="none"/><path d="" fill="none"/><path d="" fill="none"/><path d="" fill="none"/><path d="M86,172c-47.49649,0 -86,-38.50351 -86,-86v0c0,-47.49649 38.50351,-86 86,-86v0c47.49649,0 86,38.50351 86,86v0c0,47.49649 -38.50351,86 -86,86z" fill="none"/><path d="M86,168.56c-45.59663,0 -82.56,-36.96337 -82.56,-82.56v0c0,-45.59663 36.96337,-82.56 82.56,-82.56v0c45.59663,0 82.56,36.96337 82.56,82.56v0c0,45.59663 -36.96337,82.56 -82.56,82.56z" fill="none"/></g></g></svg>
