<svg height="512pt" viewBox="-23 0 512 512" width="512pt" xmlns="http://www.w3.org/2000/svg"><g fill-rule="evenodd"><path d="m302.03125 7.558594h-270.46875c-13.207031 0-24.003906 10.796875-24.003906 24.003906v29.074219l152.195312 49.597656 166.3125-49.597656v-29.074219c0-13.207031-10.828125-24.003906-24.035156-24.003906zm0 0" fill="#808080"/><path d="m326.066406 457.199219-167.644531-53.988281-150.863281 53.988281v23.210937c0 13.207032 10.796875 24.03125 24.003906 24.03125h270.46875c13.207031 0 24.035156-10.824218 24.035156-24.03125zm0 0" fill="#808080"/><path d="m7.558594 60.636719v396.5625h318.507812c0-302.898438 0-115.796875 0-396.5625zm0 0" fill="#a2d6f2"/><path d="m182.824219 199.902344v70.253906c0 2.664062 2.15625 4.847656 4.820312 4.847656h88.9375v-75.101562c0-2.664063-2.183593-4.847656-4.847656-4.847656h-84.089844c-2.664062 0-4.820312 2.183593-4.820312 4.847656zm0 0" fill="#f78411"/><path d="m271.707031 275.003906 17.882813 38.085938c11.136718 23.777344 30.695312 53.507812 12.246094 60.421875l-17.375 8.105469c-21.003907 9.832031-4.535157 38.371093 11.421874 34.121093 54.558594-25.621093 56.230469-2.605469 57.621094-.027343l57.816406-1.417969 32.648438-41.007813c16.554688-7.792968-18.054688-75.808594-24.941406-90.488281-10.429688-22.25-34.492188-6.773437-28.625 6.148437v-.027343l-7.140625-15.21875c-10.96875-22.644531-38.347657-6.152344-31.628907 9.097656l-1.757812-3.769531c-4.054688-8.644532-14.425781-12.386719-23.070312-8.332032-.257813.113282-.484376.226563-.738282.367188-6.945312 3.570312-11.449218 10.457031-8.898437 19.214844l-27.492188-58.550782c-2.550781-5.414062-7.566406-8.898437-13.09375-9.75-3.289062-.507812-6.746093-.082031-9.949219 1.445313-8.617187 4.023437-12.386718 14.398437-8.332031 23.042969zm0 0" fill="#ffdda6"/><path d="m443.96875 373.285156-90.464844 42.425782c-2.835937 1.359374-3.855468 5.214843-2.269531 8.613281l6.914063 14.707031c1.589843 3.402344 5.214843 5.074219 8.050781 3.742188l90.46875-42.453126c2.832031-1.332031 3.542969-6.234374 1.953125-9.605468l-6.914063-14.738282c-1.585937-3.398437-4.902343-4.023437-7.738281-2.691406zm0 0" fill="#f78411"/><path d="m264.820312 7.558594c13.207032 0 24.03125 10.796875 24.03125 24.003906v29.074219h37.214844v-29.074219c0-13.207031-10.828125-24.003906-24.035156-24.003906zm0 0" fill="#666"/><path d="m288.851562 71.71875v158.449219c.285157.511719.570313 1.019531.824219 1.558593l27.492188 58.550782c-2.550781-8.757813 1.953125-15.644532 8.898437-19.214844v-210.425781h-37.214844zm0 0" fill="#64b0d9"/><path d="m288.851562 311.53125v68.042969l12.984376-6.0625c18.449218-6.914063-1.105469-36.644531-12.246094-60.421875zm0 0" fill="#64b0d9"/><path d="m288.851562 415.625v41.574219h37.214844v-52.316407c-7.652344 1.558594-17.488281 4.875-30.183594 10.855469-2.378906.625-4.761718.539063-7.03125-.113281zm0 0" fill="#64b0d9"/><path d="m288.851562 457.199219v23.210937c0 13.207032-10.824218 24.03125-24.03125 24.03125h37.210938c13.207031 0 24.035156-10.824218 24.035156-24.03125v-23.210937zm0 0" fill="#666"/><path d="m271.734375 195.054688h-23.863281c2.664062 0 4.816406 2.183593 4.816406 4.847656v22.074218l.03125 53.027344h18.988281l-13.40625-28.539062c-4.054687-8.644532-.285156-19.015625 8.332031-23.039063 3.203126-1.53125 6.660157-1.957031 9.949219-1.445312v-22.078125c0-2.664063-2.183593-4.847656-4.847656-4.847656zm0 0" fill="#f74311"/><path d="m419.027344 282.796875c-8.359375-17.800781-25.421875-11.449219-28.90625-1.589844 3.796875 1.390625 7.425781 4.648438 10.117187 10.402344 6.886719 14.652344 41.4375 82.554687 24.996094 90.460937l18.734375-8.785156c16.554688-7.792968-18.054688-75.808594-24.941406-90.488281zm0 0" fill="#fcc368"/><path d="m443.96875 373.285156-18.734375 8.785156c2.835937-1.304687 6.125-.652343 7.710937 2.71875l.679688 1.476563 6.234375 13.234375c1.558594 3.402344.878906 8.273438-1.925781 9.636719l18.734375-8.816407c2.832031-1.332031 3.542969-6.234374 1.953125-9.605468l-6.914063-14.738282c-1.585937-3.398437-4.902343-4.023437-7.738281-2.691406zm0 0" fill="#f74311"/></g><path d="m264.308594 38.550781h-.59375c-4.175782 0-7.558594-3.382812-7.558594-7.554687 0-4.175782 3.382812-7.558594 7.558594-7.558594h.59375c4.175781 0 7.558594 3.382812 7.558594 7.558594 0 4.171875-3.382813 7.554687-7.558594 7.554687zm0 0"/><path d="m239.539062 38.550781h-.597656c-4.171875 0-7.554687-3.382812-7.554687-7.554687 0-4.175782 3.382812-7.558594 7.554687-7.558594h.597656c4.171876 0 7.554688 3.382812 7.554688 7.558594 0 4.171875-3.382812 7.554687-7.554688 7.554687zm0 0"/><path d="m61.464844 164.390625c1.671875 0 3.058594-.59375 4.195312-1.757813 1.132813-1.160156 1.699219-2.605468 1.699219-4.308593l-.226563-28.167969 23.75 31.570312c1.390626 1.785157 2.949219 2.664063 4.707032 2.664063 1.726562 0 3.144531-.566406 4.308594-1.699219 1.160156-1.132812 1.726562-2.605468 1.726562-4.363281v-43.816406c0-.90625-.140625-1.726563-.453125-2.4375-.28125-.707031-.707031-1.359375-1.246094-1.953125-1.160156-1.21875-2.578125-1.84375-4.195312-1.84375-1.617188 0-3.003907.652344-4.195313 1.902344-1.160156 1.273437-1.757812 2.71875-1.757812 4.335937l.230468 28.167969-23.753906-31.429688c-1.417968-1.929687-3.03125-2.890625-4.847656-2.890625-1.671875 0-3.089844.59375-4.222656 1.8125-1.160156 1.21875-1.730469 2.722657-1.730469 4.476563v43.363281c0 1.8125.597656 3.34375 1.816406 4.5625 1.246094 1.21875 2.636719 1.8125 4.195313 1.8125zm0 0"/><path d="m127.074219 163.710938h19.386719c1.589843 0 2.890624-.539063 3.941406-1.585938 1.046875-1.078125 1.585937-2.351562 1.585937-3.882812 0-.824219-.140625-1.53125-.425781-2.210938-.308594-.652344-.707031-1.21875-1.1875-1.730469-1.136719-1.132812-2.4375-1.671875-3.910156-1.671875h-13.519532v-10.855468h11.84375c1.617188 0 2.949219-.566407 3.996094-1.640626 1.050782-1.078124 1.589844-2.382812 1.589844-3.914062 0-1.472656-.539062-2.746094-1.617188-3.882812-1.078124-1.105469-2.410156-1.644532-3.96875-1.644532h-11.902343v-10.484375h13.234375c1.417968 0 2.664062-.566406 3.742187-1.671875 1.019531-1.21875 1.53125-2.550781 1.53125-4.023437 0-1.53125-.511719-2.835938-1.53125-3.910157-1.019531-1.078124-2.296875-1.644531-3.742187-1.644531h-19.128906c-1.671876 0-3.089844.652344-4.28125 1.898438-1.160157 1.273437-1.757813 2.75-1.757813 4.421875v42.195312c0 1.785156.597656 3.261719 1.757813 4.449219 1.191406 1.195313 2.636718 1.789063 4.363281 1.789063zm0 0"/><path d="m176.703125 157.703125c1.019531 4.449219 3.65625 6.6875 7.851563 6.6875 4.136718 0 6.773437-2.039063 7.964843-6.148437l8.21875-28.257813 8.246094 28.257813c1.277344 4.109374 3.882813 6.148437 7.851563 6.148437 4.222656 0 6.859374-2.238281 7.878906-6.6875l9.550781-41.746094c.113281-.3125.144531-.734375.144531-1.304687 0-1.699219-.566406-3.171875-1.757812-4.390625-1.164063-1.21875-2.578125-1.816407-4.195313-1.816407-3.289062 0-5.300781 1.929688-6.007812 5.753907l-6.488281 31.203125-9.183594-32.109375c-.9375-3.285157-2.949219-4.929688-6.039063-4.929688-2.976562 0-4.960937 1.644531-5.953125 4.929688l-9.324218 32.109375-6.402344-31.203125c-.878906-3.824219-2.921875-5.753907-6.125-5.753907-1.644532 0-3.058594.597657-4.164063 1.785157-1.132812 1.191406-1.703125 2.664062-1.703125 4.421875 0 .566406.085938.992187.230469 1.304687zm0 0"/><path d="m254.503906 162.125c3.316406 1.613281 7.480469 2.40625 12.5 2.40625 6.121094 0 11.023438-1.671875 14.734375-5.042969 3.714844-3.375 5.558594-7.738281 5.558594-13.09375 0-5.722656-2.183594-9.945312-6.550781-12.667969-2.292969-1.53125-5.78125-2.945312-10.429688-4.25-3.597656-1.078124-5.75-1.871093-6.488281-2.4375-1.019531-.851562-1.53125-1.785156-1.53125-2.804687 0-1.332031.566406-2.410156 1.730469-3.316406 1.132812-.878907 2.550781-1.332031 4.222656-1.332031.964844 0 2.378906.253906 4.195312.765624l2.125.761719c1.757813.597657 3.0625.910157 3.882813.910157 1.472656 0 2.722656-.570313 3.742187-1.703126.992188-1.132812 1.5-2.492187 1.5-4.050781 0-2.351562-1.386718-4.28125-4.164062-5.808593-2.777344-1.5625-6.207031-2.324219-10.316406-2.324219-5.640625 0-10.320313 1.613281-13.976563 4.84375-3.683593 3.257812-5.523437 7.367187-5.523437 12.386719 0 4.957031 1.8125 8.644531 5.441406 11.078124 1.871094 1.277344 5.296875 2.636719 10.285156 4.109376 3.234375 1.019531 5.414063 1.757812 6.492188 2.269531 1.078125.507812 1.8125 1.105469 2.179687 1.8125.398438.707031.597657 1.558593.597657 2.523437 0 1.726563-.679688 3.117188-2.042969 4.164063-1.386719 1.078125-3.089844 1.585937-5.070313 1.585937-2.011718 0-4.59375-.566406-7.738281-1.726562-2.609375-.964844-4.335937-1.445313-5.214844-1.445313-1.472656 0-2.695312.566407-3.683593 1.671875-.964844 1.105469-1.476563 2.492188-1.476563 4.164063v.398437c0 2.46875 1.671875 4.507813 5.019531 6.152344zm0 0"/><path d="m55.457031 211.027344h90.550781c4.175782 0 7.558594-3.382813 7.558594-7.554688 0-4.175781-3.382812-7.558594-7.558594-7.558594h-90.550781c-4.175781 0-7.558593 3.382813-7.558593 7.558594 0 4.171875 3.382812 7.554688 7.558593 7.554688zm0 0"/><path d="m55.457031 249.910156h90.550781c4.175782 0 7.558594-3.382812 7.558594-7.554687 0-4.175781-3.382812-7.558594-7.558594-7.558594h-90.550781c-4.175781 0-7.558593 3.382813-7.558593 7.558594 0 4.171875 3.382812 7.554687 7.558593 7.554687zm0 0"/><path d="m55.457031 288.824219h90.550781c4.175782 0 7.558594-3.382813 7.558594-7.558594 0-4.171875-3.382812-7.554687-7.558594-7.554687h-90.550781c-4.175781 0-7.558593 3.382812-7.558593 7.554687s3.382812 7.558594 7.558593 7.558594zm0 0"/><path d="m249.941406 312.617188h-194.484375c-4.175781 0-7.558593 3.386718-7.558593 7.558593 0 4.175781 3.382812 7.558594 7.558593 7.558594h194.484375c4.171875 0 7.554688-3.382813 7.554688-7.558594 0-4.171875-3.382813-7.558593-7.554688-7.558593zm0 0"/><path d="m249.941406 351.527344h-194.484375c-4.175781 0-7.558593 3.382812-7.558593 7.558594 0 4.175781 3.382812 7.558593 7.558593 7.558593h194.484375c4.171875 0 7.554688-3.386719 7.554688-7.558593 0-4.171876-3.382813-7.558594-7.554688-7.558594zm0 0"/><path d="m249.941406 390.441406h-194.484375c-4.175781 0-7.558593 3.382813-7.558593 7.554688 0 4.175781 3.382812 7.558594 7.558593 7.558594h194.484375c4.171875 0 7.554688-3.382813 7.554688-7.558594 0-4.171875-3.382813-7.554688-7.554688-7.554688zm0 0"/><path d="m465.464844 387.503906-6.910156-14.722656c-.773438-1.65625-1.820313-3.101562-3.078126-4.277344 3.171876-17.308594-11.15625-50.539062-27.332031-84.15625-.921875-1.921875-1.699219-3.53125-2.277343-4.769531-5.910157-12.566406-15.039063-15.105469-19.957032-15.503906-5.859375-.472657-11.808594 1.546875-16.34375 5.34375-7.902344-15.15625-22.375-16.847657-32.679687-11.890625-3.957031 1.902344-7.175781 4.609375-9.507813 7.765625-4.09375-2.550781-8.882812-3.878907-13.757812-3.777344v-229.953125c.003906-17.40625-14.167969-31.5625-31.589844-31.5625h-270.46875c-17.402344 0-31.5625 14.15625-31.5625 31.5625v448.847656c0 17.417969 14.160156 31.589844 31.5625 31.589844h270.46875c17.421875 0 31.59375-14.171875 31.59375-31.589844v-68.988281c4.597656-.347656 7.21875.3125 8.578125.898437 1.167969.503907 1.917969 1.140626 2.464844 1.90625-2.109375 3.851563-2.371094 8.820313-.273438 13.3125l6.90625 14.691407c1.695313 3.628906 4.734375 6.457031 8.339844 7.761719 1.472656.535156 2.988281.800781 4.484375.800781 1.824219 0 3.621094-.394531 5.285156-1.175781l90.472656-42.457032c3.550782-1.667968 6.050782-5.136718 6.851563-9.511718.625-3.402344.160156-7.101563-1.269531-10.144532zm-450.351563-355.941406c0-9.070312 7.378907-16.449219 16.449219-16.449219h270.46875c9.085938 0 16.476562 7.378907 16.476562 16.449219v21.519531h-303.394531zm303.398438 418.078125h-130.527344c-4.175781 0-7.558594 3.382813-7.558594 7.558594 0 4.171875 3.382813 7.558593 7.558594 7.558593h130.527344v15.652344c0 9.082032-7.394531 16.472656-16.480469 16.472656h-270.46875c-9.070312 0-16.449219-7.390624-16.449219-16.472656v-15.652344h138.238281c4.171876 0 7.554688-3.386718 7.554688-7.558593s-3.382812-7.558594-7.554688-7.558594h-138.238281v-381.445313h303.398438v198.714844c-1.015625.753906-1.976563 1.546875-2.835938 2.402344l-19.160156-40.800781c-2.640625-5.609375-7.117187-9.769531-12.375-12.113281v-16.496094c0-6.839844-5.566406-12.40625-12.40625-12.40625h-84.089844c-6.824219 0-12.375 5.566406-12.375 12.40625v70.253906c0 6.839844 5.550781 12.402344 12.375 12.402344h79.257813l15.84375 33.738281c1.941406 4.140625 4.144531 8.480469 6.273437 12.683594 6.289063 12.402343 14.902344 29.394531 12.496094 35.5625-.160156.417969-.460937 1.191406-2.332031 1.894531-.183594.066406-.367188.144531-.542969.226562l-17.382813 8.109376c-12.097656 5.664062-17.167968 17.863281-12.617187 30.355468 3.613281 9.925782 13.074219 18.609375 23.902344 18.609375 1.734375 0 3.503906-.222656 5.285156-.699219.433594-.113281 15.347656-6.578124 20.683594-8.300781zm-67.050781-199.964844 8.34375 17.769531h-69.421876v-64.835937h78.640626v12.113281c-1.890626.386719-3.765626.996094-5.589844 1.851563-6 2.804687-10.550782 7.796875-12.820313 14.058593-2.273437 6.269532-1.972656 13.03125.847657 19.042969zm113.210937 185.46875-6.289063-13.375 31.460938-14.746093c3.777344-1.773438 5.402344-6.269532 3.632812-10.050782-1.769531-3.777344-6.269531-5.40625-10.050781-3.632812l-26.292969 12.324218c-1.8125-2.613281-4.589843-5.339843-8.933593-7.214843-5.980469-2.585938-13.6875-2.925781-23.230469-1.03125-.308594.042969-.609375.105469-.90625.1875-8.683594 1.828125-18.847656 5.453125-30.636719 10.941406-4.191406.664063-8.859375-3.851563-10.582031-8.585937-1.910156-5.238282-.285156-9.105469 4.8125-11.492188l17.132812-7.992188c5.203126-2.03125 8.9375-5.636718 10.8125-10.445312 4.855469-12.460938-3.867187-29.667969-13.101562-47.882812-2.175781-4.285157-4.226562-8.335938-6.066406-12.265626l-17.636719-37.554687c-.140625-.367187-.308594-.726563-.5-1.066406l-13.152344-28.003907c-1.101562-2.347656-1.214843-5-.320312-7.472656.890625-2.460937 2.671875-4.417968 5.027343-5.519531 4.867188-2.289063 10.695313-.191406 12.984376 4.675781l27.40625 58.371094c.058593.128906.117187.253906.179687.378906l6.707031 14.28125c1.773438 3.78125 6.277344 5.402344 10.054688 3.628906 3.777344-1.773437 5.402344-6.273437 3.628906-10.050781l-6.527344-13.898437c-1.328125-5.449219 2.484375-8.457032 5.246094-9.875.050781-.023438.105469-.046875.152344-.074219.113281-.054687.222656-.113281.328125-.164063 4.890625-2.292968 10.730469-.183593 13.019531 4.695313l1.5 3.203125c.140625.339844.289062.679688.453125 1.015625.074219.160156.15625.316406.242187.46875l4.976563 10.617187c1.769531 3.78125 6.269531 5.40625 10.046875 3.636719 3.78125-1.769531 5.410156-6.269531 3.636719-10.046875l-5.464844-11.664062c-1.230469-3.472656 2.105469-6.914063 5.015625-8.3125 2.488281-1.199219 8.734375-3.019532 12.980469 5.757812l7.101562 15.140625c.0625.140625.128907.277344.195313.414063.003906.007812.007812.019531.011718.027344l3.179688 6.777343c1.769531 3.777344 6.273438 5.40625 10.050781 3.632813 3.777344-1.769532 5.40625-6.269532 3.632813-10.050782l-3.320313-7.078124c-.414062-.960938-.207031-2.054688.613281-3.253907 1.5-2.191406 4.300782-3.582031 6.8125-3.375 3.664063.292969 6.097657 3.898438 7.492188 6.863281.589844 1.265626 1.386719 2.917969 2.335938 4.894532 4.53125 9.417968 12.964843 26.949218 19.0625 43.378906 9.027343 24.328125 7.265624 31.1875 6.808593 32.335938l-25.566406 11.984374c-3.777344 1.769532-5.40625 6.269532-3.632813 10.046876 1.769532 3.78125 6.269532 5.40625 10.046876 3.636718l24.402343-11.4375 6.140625 13.082032c.035156.074218.0625.179687.078125.296874zm0 0"/></svg>